# xmcd CD database file
#
# Track frame offsets:
#	150
#	37658
#	63558
#	92461
#	128244
#	158270
#	190899
#	217583
#	268308
#
# Disc length: 3851 seconds
#
# Revision: 0
# Processed by: cddbd v1.5.2PL0 Copyright (c) Steve Scherf et al.
# Submitted via: CDex 1.70beta2
#
DISCID=6b0f0909
DTITLE=Christoph Irniger - Chat Noir
DYEAR=2007
DGENRE=Jazz
TTITLE0=The Last Frontier
TTITLE1=Maina
TTITLE2=Hie and Da
TTITLE3=Matto Regiert
TTITLE4=Ballad of Eden
TTITLE5=Chat Noir
TTITLE6=Hangover
TTITLE7=The Song After
TTITLE8=Video - Chat Noir
EXTD=YEAR: 2007
EXTT0=
EXTT1=
EXTT2=
EXTT3=
EXTT4=
EXTT5=
EXTT6=
EXTT7=
EXTT8=
PLAYORDER=
